# Made using Asset Forge (www.assetforge.io) version 1.3 

mtllib simpleRocket.mtl 

g engine_plane_0

v 0.215 1 -0.7399999
v 0.215 1 -0.245
v -0.215 1 -0.7399999
v -0.215 1 -0.245
v 0.215 0.585 -0.245
v 0.215 0.585 -0.7399999
v -0.215 0.585 -0.245
v -0.215 0.585 -0.7399999
v -0.1503972 0.6496027 -0.7399999
v -0.1503972 0.9353973 -0.7399999
v 0.1503972 0.9353973 -0.7399999
v 0.1503972 0.6496027 -0.7399999
v 0.09023834 0.7067617 -0.61
v -0.09023834 0.7067617 -0.61
v 0.09023834 0.8782383 -0.61
v -0.09023834 0.8782383 -0.61
v 0.215 0.585 0.25
v -0.215 0.585 0.25
v 0.12685 0.670075 0.7399999
v -0.12685 0.670075 0.7399999
v -0.215 1 0.25
v 0.215 1 0.25
v 0.12685 0.914925 0.7399999
v -0.12685 0.914925 0.7399999
vn 0 1 0
vn 0 -1 0
vn 0 0 -1
vn 0 0.9154216 -0.4024963
vn -0.9075369 0 -0.4199725
vn -0.9075369 0 -0.4199726
vn 0.9075369 0 -0.4199725
vn 0.9075369 0 -0.4199726
vn -1 0 0
vn 0 -0.9154216 -0.4024963
vn 1 0 0
vn 0 -0.9963082 0.08584856
vn 0 -0.98526 0.1710632
vn -0.9982445 0 0.05922689
vn -0.9929596 0 0.1184538
vn 0 0.9983622 0.05720881
vn 0 0.98526 0.1710633
vn 0 0.9934328 0.1144176
vn 0 0.98526 0.1710633
vn -0.9842008 0 0.1770557
vn 0.9982445 0 0.05922689
vn 0.9929596 0 0.1184538
vn 0.9842008 0 0.1770557
vn 0 0 1
vt -0.215 -0.7399999
vt -0.215 -0.245
vt 0.215 -0.7399999
vt 0.215 -0.245
vt -0.215 0.245
vt -0.215 0.7399999
vt 0.215 0.245
vt 0.215 0.7399999
vt -0.215 0.585
vt 0.1503972 0.6496027
vt 0.215 0.585
vt 0.215 1
vt 0.1503972 0.9353973
vt -0.1503972 0.9353973
vt -0.215 1
vt -0.1503972 0.6496027
vt -0.1503972 -0.7399999
vt -0.09023834 -0.61
vt 0.1503972 -0.7399999
vt 0.09023834 -0.61
vt -0.7399999 0.6496027
vt -0.7399999 0.9353973
vt -0.61 0.7067617
vt -0.61 0.8782383
vt 0.7399999 0.9353973
vt 0.7399999 0.6496027
vt 0.61 0.8782383
vt 0.61 0.7067617
vt -0.7399999 0.585
vt -0.7399999 1
vt -0.245 0.585
vt -0.245 1
vt -0.1503972 0.7399999
vt 0.1503972 0.7399999
vt -0.09023834 0.61
vt 0.09023834 0.61
vt 0.7399999 1
vt 0.7399999 0.585
vt 0.245 1
vt 0.245 0.585
vt -0.215 -0.25
vt 0.215 -0.25
vt -0.12685 -0.7399999
vt 0.12685 -0.7399999
vt 0.25 0.585
vt 0.25 1
vt -0.215 0.25
vt -0.12685 0.7399999
vt 0.215 0.25
vt 0.12685 0.7399999
vt 0.7399999 0.670075
vt 0.7399999 0.914925
vt -0.25 1
vt -0.25 0.585
vt -0.7399999 0.914925
vt -0.7399999 0.670075
vt 0.12685 0.670075
vt -0.12685 0.670075
vt 0.12685 0.914925
vt -0.12685 0.914925
vt 0.09023834 0.7067617
vt -0.09023834 0.7067617
vt 0.09023834 0.8782383
vt -0.09023834 0.8782383

usemtl _defaultMat (Instance)
usemap _defaultMat (Instance)
f 3/3/1 2/2/1 1/1/1
f 2/2/1 3/3/1 4/4/1
f 7/7/2 6/6/2 5/5/2
f 6/6/2 7/7/2 8/8/2
f 8/11/3 9/10/3 6/9/3
f 9/10/3 8/11/3 3/12/3
f 9/10/3 3/12/3 10/13/3
f 10/13/3 3/12/3 11/14/3
f 6/9/3 12/16/3 1/15/3
f 12/16/3 6/9/3 9/10/3
f 1/15/3 12/16/3 11/14/3
f 1/15/3 11/14/3 3/12/3
f 9/19/4 13/18/4 12/17/4
f 13/18/4 9/19/4 14/20/4
f 13/23/5 11/22/5 12/21/5
f 11/22/5 13/23/5 15/24/6
f 16/27/7 9/26/7 10/25/7
f 9/26/7 16/27/7 14/28/8
f 7/31/9 3/30/9 8/29/9
f 3/30/9 7/31/9 4/32/9
f 15/35/10 10/34/10 11/33/10
f 10/34/10 15/35/10 16/36/10
f 2/39/11 6/38/11 1/37/11
f 6/38/11 2/39/11 5/40/11

usemtl blueSteel (Instance)
usemap blueSteel (Instance)
f 19/43/13 18/42/12 17/41/12
f 18/42/12 19/43/13 20/44/13
f 18/45/14 4/32/9 7/31/9
f 4/32/9 18/45/14 21/46/15
f 21/49/18 23/48/17 22/47/16
f 23/48/17 21/49/18 24/50/19
f 20/51/20 21/46/15 18/45/14
f 21/46/15 20/51/20 24/52/20
f 18/42/12 5/5/2 17/41/12
f 5/5/2 18/42/12 7/7/2
f 4/4/1 22/47/16 2/2/1
f 22/47/16 4/4/1 21/49/18
f 23/55/23 17/54/22 22/53/21
f 17/54/22 23/55/23 19/56/23
f 22/53/21 5/40/11 2/39/11
f 5/40/11 22/53/21 17/54/22
f 23/59/24 20/58/24 19/57/24
f 20/58/24 23/59/24 24/60/24

usemtl black (Instance)
usemap black (Instance)
f 16/63/3 13/62/3 14/61/3
f 13/62/3 16/63/3 15/64/3
g wind_endLow_1

v -0.2 0.8 -0.6
v -0.2 0.7 -0.6
v -0.2 0.8 -0.1
v -0.2 0.7 -0.1
v -1.052076 0.7 -0.2730874
v -1.052076 0.8 -0.2730874
v -1.052076 0.7 0.2022037
v -1.052076 0.8 0.2269126
v -1.2 0.7542287 -0.2163342
v -1.2 0.905 -0.2163342
v -1.2 0.7542287 0.4
v -1.2 0.905 0.4
v -1.052076 0.905 -0.2730874
v -1.052076 0.905 0.4
v -1.052076 0.8 0.4
v -1.121744 0.7 -0.2463582
v -0.2 0.7 0.4
v -1.121744 0.7 0.4
v -0.2 0.8 0.4
vn -0.3582067 0 -0.9336424
vn -0.3582066 0 -0.9336424
vn -0.3582067 0 -0.9336423
vn -0.3582065 0 -0.9336424
vn -0.3582067 0 -0.9336423
vn -0.5695769 -0.8219381 0
vt 0.6 0.8
vt 0.6 0.7
vt 0.1 0.8
vt 0.1 0.7
vt 0.2 0.7
vt 0.2 0.8
vt 1.052076 0.7
vt 1.052076 0.8
vt 0.2 0.1
vt 0.2 0.6
vt 1.052076 -0.2022037
vt 1.052076 0.2730874
vt 0.2 -0.6
vt 0.2 -0.1
vt 1.052076 -0.2730874
vt 1.052076 0.2269126
vt -0.2163342 0.7542287
vt -0.2163342 0.905
vt 0.4 0.7542287
vt 0.4 0.905
vt 1.052076 0.4
vt 1.2 -0.2163342
vt 1.2 0.4
vt 0.2730874 0.905
vt 0.2730874 0.8
vt -0.4 0.905
vt -0.2269126 0.8
vt -0.4 0.8
vt 1.121744 0.7
vt 1.2 0.7542287
vt 1.2 0.905
vt 1.052076 0.905
vt -0.2 0.7
vt -1.121744 0.7
vt -0.2 0.8
vt -1.2 0.7542287
vt -1.052076 0.8
vt -1.2 0.905
vt -1.052076 0.905
vt 1.121744 -0.4
vt 1.121744 0.2463582
vt 1.2 -0.4
vt 1.2 0.2163342
vt 0.2 -0.4
vt -0.4 0.7
vt 0.2 0.4

usemtl blueSteel (Instance) (Instance)
usemap blueSteel (Instance) (Instance)
f 27/67/11 26/66/11 25/65/11
f 26/66/11 27/67/11 28/68/11
f 29/71/26 25/70/25 26/69/25
f 25/70/25 29/71/26 30/72/27
f 31/75/2 26/74/2 28/73/2
f 26/74/2 31/75/2 29/76/2
f 30/79/1 27/78/1 25/77/1
f 27/78/1 30/79/1 32/80/1

usemtl _defaultMat (Instance) (Instance)
usemap _defaultMat (Instance) (Instance)
f 35/83/9 34/82/9 33/81/9
f 34/82/9 35/83/9 36/84/9
f 34/86/1 38/85/1 37/79/1
f 38/85/1 34/86/1 36/87/1
f 38/90/11 30/89/11 37/88/11
f 30/89/11 38/90/11 32/91/11
f 32/91/11 38/90/11 39/92/11
f 33/94/26 29/71/26 40/93/28
f 29/71/26 33/94/26 30/72/27
f 30/72/27 33/94/26 34/95/29
f 30/72/27 34/95/29 37/96/27
f 43/99/24 42/98/24 41/97/24
f 42/98/24 43/99/24 35/100/24
f 35/100/24 43/99/24 39/101/24
f 35/100/24 39/101/24 36/102/24
f 36/102/24 39/101/24 38/103/24
f 35/106/30 40/105/30 42/104/30
f 40/105/30 35/106/30 33/107/30
f 42/104/2 28/73/2 41/108/2
f 28/73/2 42/104/2 31/75/2
f 29/76/2 42/104/2 40/105/2
f 31/75/2 42/104/2 29/76/2
f 43/92/11 28/68/11 27/67/11
f 28/68/11 43/92/11 41/109/11
f 32/80/1 43/110/1 27/78/1
f 43/110/1 32/80/1 39/85/1
g wind_endLow_2

v 0.2 0.8 -0.6
v 0.2 0.7 -0.6
v 0.2 0.8 -0.1
v 0.2 0.7 -0.1
v 1.052076 0.7 -0.2730874
v 1.052076 0.8 -0.2730874
v 1.052076 0.7 0.2022037
v 1.052076 0.8 0.2269126
v 1.2 0.7542287 -0.2163342
v 1.2 0.905 -0.2163342
v 1.2 0.7542287 0.4
v 1.2 0.905 0.4
v 1.052076 0.905 -0.2730874
v 1.052076 0.905 0.4
v 1.052076 0.8 0.4
v 1.121744 0.7 -0.2463582
v 0.2 0.7 0.4
v 1.121744 0.7 0.4
v 0.2 0.8 0.4
vn 0.3582067 0 -0.9336424
vn 0.3582066 0 -0.9336424
vn 0.3582067 0 -0.9336423
vn 0.3582065 0 -0.9336424
vn 0.3582067 0 -0.9336423
vn 0.5695769 -0.8219381 0
vt -0.2 -0.1
vt -0.2 -0.6
vt -1.052076 0.2022037
vt -1.052076 -0.2730874
vt -0.2 0.6
vt -0.2 0.1
vt -1.052076 0.2730874
vt -1.052076 -0.2269126
vt -1.052076 -0.4
vt -1.2 0.2163342
vt -1.2 -0.4
vt -1.121744 0.4
vt -1.121744 -0.2463582
vt -1.2 0.4
vt -1.2 -0.2163342
vt -0.2 0.4
vt -0.2 -0.4

usemtl blueSteel (Instance) (Instance) (Instance)
usemap blueSteel (Instance) (Instance) (Instance)
f 44/65/9 45/66/9 46/67/9
f 47/68/9 46/67/9 45/66/9
f 45/69/31 44/70/31 48/71/32
f 49/72/33 48/71/32 44/70/31
f 47/111/2 45/112/2 50/113/2
f 48/114/2 50/113/2 45/112/2
f 44/115/1 46/116/1 49/117/1
f 51/118/1 49/117/1 46/116/1

usemtl _defaultMat (Instance) (Instance) (Instance)
usemap _defaultMat (Instance) (Instance) (Instance)
f 52/81/11 53/82/11 54/83/11
f 55/84/11 54/83/11 53/82/11
f 56/117/1 57/119/1 53/120/1
f 55/121/1 53/120/1 57/119/1
f 56/88/9 49/89/9 57/90/9
f 51/91/9 57/90/9 49/89/9
f 58/92/9 57/90/9 51/91/9
f 59/93/34 48/71/32 52/94/32
f 49/72/33 52/94/32 48/71/32
f 53/95/35 52/94/32 49/72/33
f 56/96/33 53/95/35 49/72/33
f 60/97/24 61/98/24 62/99/24
f 54/100/24 62/99/24 61/98/24
f 58/101/24 62/99/24 54/100/24
f 55/102/24 58/101/24 54/100/24
f 57/103/24 58/101/24 55/102/24
f 61/122/36 59/123/36 54/124/36
f 52/125/36 54/124/36 59/123/36
f 60/126/2 47/111/2 61/122/2
f 50/113/2 61/122/2 47/111/2
f 59/123/2 61/122/2 48/114/2
f 48/114/2 61/122/2 50/113/2
f 46/67/9 47/68/9 62/92/9
f 60/109/9 62/92/9 47/68/9
f 46/116/1 62/127/1 51/118/1
f 58/119/1 51/118/1 62/127/1
g plane_rudder_3

v 0.06121492 0.6387849 0.7
v 0.06121518 0.6387851 0.314279
v -0.06121492 0.761215 0.7
v -0.06121466 0.7612152 0.314279
v -0.02737662 0.7950531 0.314279
v 0.09505323 0.6726231 0.314279
v 0.4006265 0.9781959 0.7209052
v 0.1351007 0.7126706 0.7000001
v 0.1351005 0.7126704 0.9542791
v 0.4006263 0.9781958 0.9542794
v 0.01267068 0.8351005 0.9542791
v 0.01267085 0.8351006 0.7
v 0.2781964 1.100626 0.9542794
v 0.2781966 1.100626 0.7209052
vn -0.7071073 -0.7071062 -8.527288E-07
vn 6.741618E-07 5.317787E-07 -1
vn 0.7071062 -0.7071073 1.006794E-07
vn 0.7071073 0.7071062 8.527288E-07
vn -6.741618E-07 -5.317787E-07 1
vn 0.4845639 0.4845631 -0.7282832
vn -0.7071062 0.7071073 -1.006794E-07
vt 0.7 0.6387849
vt 0.314279 0.6387851
vt 0.7 0.761215
vt 0.314279 0.7612152
vt 0.06121467 0.7612152
vt -0.06121518 0.6387851
vt 0.02737662 0.7950531
vt -0.09505323 0.6726231
vt -0.09505323 -0.3142791
vt -0.06121518 -0.314279
vt -0.4006264 -0.7209052
vt -0.1351007 -0.7000001
vt -0.1351005 -0.9542791
vt -0.4006263 -0.9542794
vt -0.06121492 -0.7
vt 0.9542791 0.7126704
vt 0.7000001 0.7126706
vt 0.9542791 0.8351005
vt 0.7 0.8351006
vt -0.9542794 0.9781958
vt -0.9542794 1.100626
vt -0.7209052 0.9781959
vt -0.7209052 1.100626
vt 0.06121492 0.6387849
vt -0.06121492 0.761215
vt 0.1351007 0.7126706
vt 0.01267085 0.8351006
vt -0.2781966 1.100626
vt -0.4006264 0.9781959
vt 0.06121467 0.314279
vt 0.02737662 0.314279
vt 0.06121492 0.7
vt -0.01267085 0.7
vt -0.2781966 0.7209052
vt -0.01267068 0.9542791
vt -0.2781964 0.9542794
vt 0.1351005 0.7126704
vt 0.01267068 0.8351005
vt 0.4006263 0.9781958
vt 0.2781964 1.100626

usemtl _defaultMat (Instance) (Instance)
usemap _defaultMat (Instance) (Instance)
f 65/130/37 64/129/37 63/128/37
f 64/129/37 65/130/37 66/131/37
f 67/134/38 64/133/38 66/132/38
f 64/133/38 67/134/38 68/135/38
f 69/138/39 64/137/39 68/136/39
f 64/137/39 69/138/39 70/139/39
f 70/139/39 69/138/39 71/140/39
f 71/140/39 69/138/39 72/141/39
f 63/142/39 64/137/39 70/139/39
f 73/145/37 70/144/37 71/143/37
f 70/144/37 73/145/37 74/146/37
f 69/149/40 75/148/40 72/147/40
f 75/148/40 69/149/40 76/150/40
f 70/153/41 65/152/41 63/151/41
f 65/152/41 70/153/41 74/154/41
f 76/155/42 68/135/42 67/134/42
f 68/135/42 76/155/42 69/156/42
f 65/159/43 67/158/43 66/157/43
f 67/158/43 65/159/43 74/160/43
f 67/158/43 74/160/43 76/161/43
f 76/161/43 74/160/43 73/162/43
f 76/161/43 73/162/43 75/163/43
f 72/166/41 73/165/41 71/164/41
f 73/165/41 72/166/41 75/167/41
g plane_rudder_4


usemtl _defaultMat (Instance) (Instance) (Instance)
usemap _defaultMat (Instance) (Instance) (Instance)
f 65/130/37 64/129/37 63/128/37
f 64/129/37 65/130/37 66/131/37
f 67/134/38 64/133/38 66/132/38
f 64/133/38 67/134/38 68/135/38
f 69/138/39 64/137/39 68/136/39
f 64/137/39 69/138/39 70/139/39
f 70/139/39 69/138/39 71/140/39
f 71/140/39 69/138/39 72/141/39
f 63/142/39 64/137/39 70/139/39
f 73/145/37 70/144/37 71/143/37
f 70/144/37 73/145/37 74/146/37
f 69/149/40 75/148/40 72/147/40
f 75/148/40 69/149/40 76/150/40
f 70/153/41 65/152/41 63/151/41
f 65/152/41 70/153/41 74/154/41
f 76/155/42 68/135/42 67/134/42
f 68/135/42 76/155/42 69/156/42
f 65/159/43 67/158/43 66/157/43
f 67/158/43 65/159/43 74/160/43
f 67/158/43 74/160/43 76/161/43
f 76/161/43 74/160/43 73/162/43
f 76/161/43 73/162/43 75/163/43
f 72/166/41 73/165/41 71/164/41
f 73/165/41 72/166/41 75/167/41
g plane_rudder_5

v 0.06121502 0.7612149 0.7
v 0.06121528 0.761215 0.3142791
v -0.06121502 0.638785 0.6999999
v -0.06121476 0.6387852 0.314279
v -0.09505275 0.6726233 0.314279
v 0.02737729 0.7950531 0.3142791
v -0.278196 1.100626 0.7209048
v -0.01267064 0.8351007 0.7
v -0.01267081 0.8351005 0.9542791
v -0.2781962 1.100626 0.9542789
v -0.1351009 0.7126706 0.9542789
v -0.1351007 0.7126708 0.6999999
v -0.4006262 0.9781964 0.9542788
v -0.400626 0.9781965 0.7209047
vn 0.7071062 -0.7071073 1.006793E-07
vn 0.7071073 0.7071062 8.527288E-07
vn -0.7071062 0.7071073 -1.006793E-07
vn -0.4845622 0.4845638 -0.7282839
vn -0.7071073 -0.7071062 -8.527288E-07
vt -0.06121502 -0.7
vt -0.06121528 -0.3142791
vt 0.06121502 -0.6999999
vt 0.06121476 -0.314279
vt 0.06121476 0.6387852
vt -0.06121528 0.761215
vt 0.09505275 0.6726233
vt -0.02737729 0.7950531
vt -0.3142791 0.7950531
vt -0.3142791 0.761215
vt -0.7209048 1.100626
vt -0.7 0.8351007
vt -0.9542791 0.8351005
vt -0.954279 1.100626
vt -0.7 0.7612149
vt 0.01267082 -0.9542791
vt 0.01267065 -0.7
vt 0.1351009 -0.9542789
vt 0.1351007 -0.6999999
vt 0.2781962 0.954279
vt 0.4006262 0.9542788
vt 0.278196 0.7209048
vt 0.400626 0.7209047
vt 0.06121502 0.7612149
vt -0.06121502 0.638785
vt -0.01267065 0.8351007
vt -0.1351007 0.7126708
vt 0.400626 0.9781965
vt 0.278196 1.100626
vt 0.314279 0.6387852
vt 0.3142789 0.6726233
vt 0.6999999 0.638785
vt 0.6999999 0.7126708
vt 0.7209047 0.9781965
vt 0.9542789 0.7126706
vt 0.9542788 0.9781964
vt -0.01267082 0.8351005
vt -0.1351009 0.7126706
vt -0.2781962 1.100626
vt -0.4006262 0.9781964

usemtl _defaultMat (Instance) (Instance) (Instance) (Instance)
usemap _defaultMat (Instance) (Instance) (Instance) (Instance)
f 79/170/44 78/169/44 77/168/44
f 78/169/44 79/170/44 80/171/44
f 81/174/38 78/173/38 80/172/38
f 78/173/38 81/174/38 82/175/38
f 83/178/45 78/177/45 82/176/45
f 78/177/45 83/178/45 84/179/45
f 84/179/45 83/178/45 85/180/45
f 85/180/45 83/178/45 86/181/45
f 77/182/45 78/177/45 84/179/45
f 87/185/44 84/184/44 85/183/44
f 84/184/44 87/185/44 88/186/44
f 83/189/46 89/188/46 86/187/46
f 89/188/46 83/189/46 90/190/46
f 84/193/41 79/192/41 77/191/41
f 79/192/41 84/193/41 88/194/41
f 90/195/47 82/175/47 81/174/47
f 82/175/47 90/195/47 83/196/47
f 79/199/48 81/198/48 80/197/48
f 81/198/48 79/199/48 88/200/48
f 81/198/48 88/200/48 90/201/48
f 90/201/48 88/200/48 87/202/48
f 90/201/48 87/202/48 89/203/48
f 86/206/41 87/205/41 85/204/41
f 87/205/41 86/206/41 89/207/41
g fence_woodGate_6

v -0.4375 0.7 -0.7
v -0.5 0.7 -0.7
v -0.4375 0.6375 -0.7
v -0.5 0.6375 -0.7
v -0.5 0.6375 -0.29
v -0.5 0.7 -0.29
v 0.4375 0.7 -0.29
v 0.4375 0.7 -0.7
v 0.5 0.7 -0.29
v 0.5 0.7 -0.7
v 0.4375 0.6375 -0.29
v 0.5 0.6375 -0.29
v -0.4375 0.7 -0.29
v -0.4375 0.6375 -0.29
v 0.4375 0.6375 -0.7
v 0.5 0.6375 -0.7
v 0.4375 0.6799999 -0.4301
v 0.25 0.6799999 -0.4301
v 0.4375 0.6574999 -0.4301
v 0.25 0.6574999 -0.4301
v 0.25 0.6800001 -0.3399
v 0.4375 0.6800001 -0.3399
v 0.25 0.6575 -0.3399
v 0.4375 0.6575 -0.3399
v 0.4375 0.68 -0.5801
v 0.25 0.68 -0.5801
v 0.4375 0.6575 -0.5801
v 0.25 0.6575 -0.5801
v -0.4375 0.68 -0.5801
v -0.4375 0.68 -0.4899
v -0.4375 0.6799999 -0.4301
v -0.4375 0.6575 -0.4899
v -0.4375 0.6800001 -0.3399
v -0.4375 0.6575 -0.3399
v -0.4375 0.6575 -0.5801
v -0.4375 0.6574999 -0.4301
v 0.25 0.6575 -0.4899
v 0.4375 0.6575 -0.4899
v 0.4375 0.68 -0.4899
v 0.1875 0.7 -0.24
v 0.25 0.7 -0.24
v 0.1875 0.6375 -0.24
v 0.25 0.6375 -0.24
v 0.1875 0.6375 -0.7
v 0.25 0.6375 -0.7
v 0.25 0.7 -0.7
v 0.25 0.68 -0.4899
v 0.1875 0.7 -0.7
v -0.25 0.7 -0.2399999
v -0.1875 0.7 -0.2399999
v -0.25 0.6375 -0.2399999
v -0.1875 0.6375 -0.2399999
v -0.25 0.6375 -0.7
v -0.1875 0.6375 -0.7
v -0.1875 0.7 -0.7
v -0.25 0.7 -0.7
v -0.25 0.6575 -0.5801
v -0.25 0.6575 -0.4899
v -0.25 0.6574999 -0.4301
v -0.25 0.68 -0.4899
v -0.25 0.6575 -0.3399
v -0.25 0.6800001 -0.3399
v -0.25 0.68 -0.5801
v -0.25 0.6799999 -0.4301
vt 0.4375 0.7
vt 0.5 0.7
vt 0.4375 0.6375
vt 0.5 0.6375
vt -0.7 0.6375
vt -0.7 0.7
vt -0.29 0.6375
vt -0.29 0.7
vt -0.4375 -0.29
vt -0.4375 -0.7
vt -0.5 -0.29
vt -0.5 -0.7
vt -0.5 0.7
vt -0.4375 0.7
vt -0.5 0.6375
vt -0.4375 0.6375
vt -0.4375 0.29
vt -0.5 0.29
vt 0.5 0.29
vt 0.4375 0.29
vt 0.7 0.7
vt 0.7 0.6375
vt 0.29 0.7
vt 0.29 0.6375
vt 0.5 -0.29
vt 0.5 -0.7
vt 0.4375 -0.29
vt 0.4375 -0.7
vt -0.4375 0.68
vt -0.25 0.68
vt -0.4375 0.6575
vt -0.25 0.6575
vt 0.25 0.68
vt 0.4375 0.68
vt 0.25 0.6575
vt 0.4375 0.6575
vt 0.5801 0.68
vt 0.4899 0.68
vt 0.4301 0.68
vt 0.4899 0.6575
vt 0.3399 0.68
vt 0.3399 0.6575
vt 0.5801 0.6575
vt 0.4301 0.6575
vt -0.25 0.5801
vt -0.25 0.4899
vt -0.4375 0.5801
vt -0.4375 0.4899
vt -0.5801 0.6575
vt -0.4899 0.6575
vt -0.4301 0.6575
vt -0.4899 0.68
vt -0.3399 0.6575
vt -0.3399 0.68
vt -0.5801 0.68
vt -0.4301 0.68
vt 0.1875 0.7
vt 0.25 0.7
vt 0.1875 0.6375
vt 0.25 0.6375
vt -0.1875 0.7
vt -0.1875 0.24
vt -0.25 0.7
vt -0.25 0.24
vt 0.24 0.7
vt 0.24 0.6375
vt -0.25 0.6375
vt -0.1875 0.6375
vt -0.24 0.6375
vt -0.24 0.7
vt -0.1875 -0.24
vt -0.1875 -0.7
vt -0.25 -0.24
vt -0.25 -0.7
vt 0.25 0.24
vt 0.1875 0.24
vt 0.25 -0.24
vt 0.25 -0.7
vt 0.1875 -0.24
vt 0.1875 -0.7
vt -0.25 -0.4899
vt -0.25 -0.5801
vt -0.4375 -0.4899
vt -0.4375 -0.5801
vt -0.25 0.4301
vt -0.25 0.3399
vt -0.4375 0.4301
vt -0.4375 0.3399
vt -0.25 -0.3399
vt -0.25 -0.4301
vt -0.4375 -0.3399
vt -0.4375 -0.4301
vt 0.4375 -0.4899
vt 0.4375 -0.5801
vt 0.25 -0.4899
vt 0.25 -0.5801
vt 0.4375 0.4301
vt 0.4375 0.3399
vt 0.25 0.4301
vt 0.25 0.3399
vt 0.4375 -0.3399
vt 0.4375 -0.4301
vt 0.25 -0.3399
vt 0.25 -0.4301
vt 0.4375 0.5801
vt 0.4375 0.4899
vt 0.25 0.5801
vt 0.25 0.4899

usemtl wood (Instance)
usemap wood (Instance)
f 93/210/3 92/209/3 91/208/3
f 92/209/3 93/210/3 94/211/3
f 95/214/9 92/213/9 94/212/9
f 92/213/9 95/214/9 96/215/9
f 99/218/1 98/217/1 97/216/1
f 98/217/1 99/218/1 100/219/1
f 101/210/24 99/209/24 97/208/24
f 99/209/24 101/210/24 102/211/24
f 95/222/24 103/221/24 96/220/24
f 103/221/24 95/222/24 104/223/24
f 106/220/2 101/224/2 105/221/2
f 101/224/2 106/220/2 102/225/2
f 93/208/2 95/226/2 94/209/2
f 95/226/2 93/208/2 104/227/2
f 99/230/11 106/229/11 100/228/11
f 106/229/11 99/230/11 102/231/11
f 103/234/1 92/233/1 96/232/1
f 92/233/1 103/234/1 91/235/1
f 106/222/3 98/221/3 100/220/3
f 98/221/3 106/222/3 105/223/3
f 109/238/3 108/237/3 107/236/3
f 108/237/3 109/238/3 110/239/3
f 113/242/24 112/241/24 111/240/24
f 112/241/24 113/242/24 114/243/24
f 117/238/3 116/237/3 115/236/3
f 116/237/3 117/238/3 118/239/3
f 91/228/11 119/244/11 93/229/11
f 119/244/11 91/228/11 103/230/11
f 119/244/11 103/230/11 120/245/11
f 120/245/11 103/230/11 121/246/11
f 120/245/11 121/246/11 122/247/11
f 121/246/11 103/230/11 123/248/11
f 123/248/11 103/230/11 124/249/11
f 125/250/11 93/229/11 119/244/11
f 93/229/11 125/250/11 104/231/11
f 104/231/11 125/250/11 122/247/11
f 104/231/11 124/249/11 103/230/11
f 104/231/11 122/247/11 126/251/11
f 126/251/11 122/247/11 121/246/11
f 104/231/11 126/251/11 124/249/11
f 117/254/2 127/253/2 118/252/2
f 127/253/2 117/254/2 128/255/2
f 105/212/9 117/256/9 98/213/9
f 117/256/9 105/212/9 101/214/9
f 117/256/9 101/214/9 128/257/9
f 128/257/9 101/214/9 109/258/9
f 128/257/9 109/258/9 129/259/9
f 109/258/9 101/214/9 114/260/9
f 114/260/9 101/214/9 112/261/9
f 115/262/9 98/213/9 117/256/9
f 98/213/9 115/262/9 97/215/9
f 97/215/9 115/262/9 129/259/9
f 97/215/9 112/261/9 101/214/9
f 97/215/9 129/259/9 107/263/9
f 107/263/9 129/259/9 109/258/9
f 97/215/9 107/263/9 112/261/9
f 132/266/24 131/265/24 130/264/24
f 131/265/24 132/266/24 133/267/24
f 135/270/2 132/269/2 134/268/2
f 132/269/2 135/270/2 133/271/2
f 136/228/11 116/244/11 135/229/11
f 116/244/11 136/228/11 131/272/11
f 116/244/11 131/272/11 137/245/11
f 137/245/11 131/272/11 108/246/11
f 137/245/11 108/246/11 127/247/11
f 108/246/11 131/272/11 111/248/11
f 111/248/11 131/272/11 113/249/11
f 118/250/11 135/229/11 116/244/11
f 135/229/11 118/250/11 133/273/11
f 133/273/11 118/250/11 127/247/11
f 133/273/11 113/249/11 131/272/11
f 133/273/11 127/247/11 110/251/11
f 110/251/11 127/247/11 108/246/11
f 133/273/11 110/251/11 113/249/11
f 135/274/3 138/268/3 136/270/3
f 138/268/3 135/274/3 134/275/3
f 132/276/9 138/213/9 134/212/9
f 138/213/9 132/276/9 130/277/9
f 131/280/1 138/279/1 130/278/1
f 138/279/1 131/280/1 136/281/1
f 141/274/24 140/268/24 139/270/24
f 140/268/24 141/274/24 142/275/24
f 144/264/2 141/282/2 143/265/2
f 141/282/2 144/264/2 142/283/2
f 140/272/11 144/229/11 145/228/11
f 144/229/11 140/272/11 142/273/11
f 144/266/3 146/265/3 145/264/3
f 146/265/3 144/266/3 143/267/3
f 143/212/9 147/256/9 146/213/9
f 147/256/9 143/212/9 141/276/9
f 147/256/9 141/276/9 148/257/9
f 148/257/9 141/276/9 149/258/9
f 148/257/9 149/258/9 150/259/9
f 149/258/9 141/276/9 151/260/9
f 151/260/9 141/276/9 152/261/9
f 153/262/9 146/213/9 147/256/9
f 148/257/9 153/262/9 147/256/9
f 153/262/9 148/257/9 150/259/9
f 146/213/9 153/262/9 139/277/9
f 139/277/9 153/262/9 150/259/9
f 139/277/9 152/261/9 141/276/9
f 139/277/9 150/259/9 154/263/9
f 154/263/9 150/259/9 149/258/9
f 139/277/9 154/263/9 152/261/9
f 151/260/9 154/263/9 149/258/9
f 154/263/9 151/260/9 152/261/9
f 140/286/1 146/285/1 139/284/1
f 146/285/1 140/286/1 145/287/1
f 129/290/1 116/289/1 137/288/1
f 116/289/1 129/290/1 115/291/1
f 127/242/24 129/241/24 137/240/24
f 129/241/24 127/242/24 128/243/24
f 109/294/2 113/293/2 110/292/2
f 113/293/2 109/294/2 114/295/2
f 112/298/1 108/297/1 111/296/1
f 108/297/1 112/298/1 107/299/1
f 147/242/3 119/241/3 153/240/3
f 119/241/3 147/242/3 125/243/3
f 150/302/1 119/301/1 120/300/1
f 119/301/1 150/302/1 153/303/1
f 122/238/24 150/237/24 120/236/24
f 150/237/24 122/238/24 148/239/24
f 149/306/2 124/305/2 126/304/2
f 124/305/2 149/306/2 151/307/2
f 152/310/1 121/309/1 123/308/1
f 121/309/1 152/310/1 154/311/1
f 147/314/2 122/313/2 125/312/2
f 122/313/2 147/314/2 148/315/2
f 149/242/3 121/241/3 154/240/3
f 121/241/3 149/242/3 126/243/3
f 124/238/24 152/237/24 123/236/24
f 152/237/24 124/238/24 151/239/24
g block_piramid_7

v 0.2 1 -0.6500001
v 0.2 0.6000001 -0.65
v -0.2 1 -0.6500001
v -0.2 0.6000001 -0.65
v 7.219114E-17 0.8 -1.35
vn 0 5.960464E-08 0.6999999
vn -0.3577709 -2.980232E-08 -0.3130495
vn 0 0.3577707 -0.3130495
vn 0 -0.3577708 -0.3130495
vn 0.3577709 -2.980232E-08 -0.3130495
vt 0.2 1
vt 0.2 0.6000001
vt -0.2 1
vt -0.2 0.6000001
vt -0.65 0.6000001
vt -1.35 0.8
vt -0.65 1
vt -0.2 -0.65
vt 0.2 -0.65
vt -7.219114E-17 -1.35
vt 0.2 0.65
vt -0.2 0.65
vt -7.219114E-17 1.35
vt 1.35 0.8
vt 0.65 0.6000001
vt 0.65 1

usemtl _defaultMat (Instance) (Instance)
usemap _defaultMat (Instance) (Instance)
f 157/318/49 156/317/49 155/316/49
f 156/317/49 157/318/49 158/319/49
f 157/322/50 159/321/50 158/320/50
f 159/325/51 157/324/51 155/323/51
f 159/328/52 156/327/52 158/326/52
f 155/331/53 156/330/53 159/329/53
